<?xml version="1.0" encoding="UTF-8"?>
<svg id="Capa_2" data-name="Capa 2" xmlns="http://www.w3.org/2000/svg" xmlns:xlink="http://www.w3.org/1999/xlink" viewBox="0 0 188.34 188.35">
  <defs>
    <style>
      .cls-1 {
        fill: #f8ad3b;
      }

      .cls-1, .cls-2, .cls-3, .cls-4, .cls-5, .cls-6, .cls-7, .cls-8 {
        stroke-width: 0px;
      }

      .cls-2 {
        fill: #21ac73;
      }

      .cls-3 {
        fill: #791428;
      }

      .cls-4 {
        fill: #22ac72;
      }

      .cls-9 {
        fill: none;
        stroke: #fdfefe;
        stroke-linecap: round;
        stroke-miterlimit: 10;
        stroke-width: 2px;
      }

      .cls-5 {
        fill: #641125;
      }

      .cls-6 {
        fill: #fefefc;
      }

      .cls-7 {
        fill: #f6e89c;
      }

      .cls-8 {
        fill: url(#Degradado_sin_nombre_5);
      }
    </style>
    <linearGradient id="Degradado_sin_nombre_5" data-name="Degradado sin nombre 5" x1="137.43" y1="177.9" x2="60.38" y2="17.31" gradientUnits="userSpaceOnUse">
      <stop offset="0" stop-color="#601026"/>
      <stop offset="1" stop-color="#931929"/>
    </linearGradient>
  </defs>
  <g id="Capa_1-2" data-name="Capa 1">
    <g>
      <path class="cls-1" d="m66.08,163.82c0,1.26-1.02,2.28-2.28,2.28s-2.28-1.02-2.28-2.28,1.02-2.28,2.28-2.28,2.28,1.02,2.28,2.28Z"/>
      <path class="cls-1" d="m113.99,90.4c-.19.8-.37,1.49-.56,2.14-1.94,8.7-2.9,10.8-4.85,20.9-.09,1.24-.19,2.46-.25,3.64-.08,1.37-.25,2.78-.51,4.22-.12.6-.17.9-.29,1.51-.17.9-.44,1.82-.8,2.74-.37.94-.83,1.81-1.35,2.6-.63.92-1.39,1.58-2.28,1.93-.88.36-1.59.55-2.17.56-.7.01-1.24-.17-1.67-.56-.51-.46-.88-1.16-1.04-2.05-.12-.6-.16-1.27-.16-2.02.01-1.2.11-2.56.29-4.1-.95,1.49-1.95,3-2.99,4.48-1.12,1.65-2.26,3.17-3.37,4.5-2.26,2.66-4.38,3.63-6.21,3.44-.82-.08-1.54-.36-2.13-.82-1.42-1.1-2.45-2.3-3.07-3.61-.64-1.37-.92-3.08-.84-5.05.04-.83.43-22.37,19.2-37.46,1.22-.98,2.66-1.46,3.99-1.95.59-.21,1.26-.41,1.98-.6.58-.13,1.11-.27,1.61-.37.47-.28.87-.51,1.19-.68.43-.21.87-.41,1.33-.58.92-.33,1.71-.47,2.4-.4.71.05,1.3.29,1.75.72.44.4.76.95.96,1.63.17.62.25,1.33.25,2.09-.01,1-.15,2.06-.4,3.15Z"/>
      <path class="cls-1" d="m178.05,61.33v.33c.01.36.01.74-.03,1.12-.01.4-.07.8-.13,1.22-.33,2.28-.54,3.45-.92,5.35-.39,1.85-.78,3.64-1.16,5.44-.23,1.06-.47,2.12-.7,3.19-.44,2.02-.9,4.08-1.37,6.24-1.31,6.13-2.3,11.69-3.24,18.02l-.08.44c-.07.4-.19.92-.33,1.55-.21.91-.51,1.85-.87,2.77-.08.21-.17.43-.27.63h0c-.43,1.03-.94,1.97-1.53,2.82-1.29,1.85-2.96,3.2-4.85,3.92-1.16.44-2.36.67-3.55.67-1.59,0-3.19-.43-4.58-1.22-1.62-.91-3-2.24-4.07-3.95-.86-1.35-1.5-2.88-1.91-4.52-.19-.71-.32-1.43-.41-2.14-.08.98-.2,2.01-.37,3.07-.16.98-.33,1.87-.51,2.64-.24,1-.59,1.95-1.03,2.77-.46.87-.99,1.41-1.65,1.94-.55.46-1.23.87-1.99,1.15-.91.33-1.62.36-2.17.13-.78-.32-1.39-.94-1.78-1.59-.37-.64-.51-2.82-.58-3.71-.03-.41-.05-.84-.07-1.3-.29.35-.43.54-.72.9-.54.67-1.03,1.31-1.5,1.91-.5.63-.86,1.08-1.08,1.37-.58.71-1.24,1.5-1.98,2.37-.75.9-1.58,1.79-2.46,2.68-.88.9-1.83,1.73-2.8,2.46-1,.76-2.03,1.35-3.05,1.73-1.29.48-2.56.55-3.78.23-1.24-.32-2.38-1.11-3.37-2.24-.99-1.12-1.79-2.64-2.37-4.32-.58-1.66-.87-3.57-.87-5.57,0-.7.07-1.38.11-2.03,1.24-19.56,19.87-32.17,21.06-33.04,2.17-1.57,4.44-2.54,6.14-2.81.12-.03.23-.04.35-.05.32-1.53.79-3.68,1.39-6.36.95-4.27,2.12-9.53,3.19-17.83.03-.12.03-.19.05-.31.29-1.18.74-2.29,1.33-3.29.7-1.15,1.59-1.99,2.61-2.38.55-.21,1.1-.36,1.65-.44.67-.09,1.29.01,1.83.28.59.28,1.08.78,1.46,1.45.36.66.58,1.51.64,2.57-.01.19-.01.27-.03.46-2.08,13.99-3.4,22.26-6.12,35.32-.2.88-.37,2.02-.54,3.39-.17,1.43-.33,2.92-.47,4.51-.15,1.57-.27,3.17-.35,4.79-.04.91-.05,2.4-.05,3.75.37-2.36.58-3.56.96-5.73.37-2.02.82-4.18,1.31-6.45.55-2.53.86-3.86,1.34-5.96l.2-.88c.52-2.28,1.06-4.58,1.58-7.01s1-5.56,1.37-7.98c.13-.91.37-1.79.79-2.86.39-1,.91-1.99,1.54-2.96.43-.67.94-1.31,1.51-1.93-.56-.86-.96-1.78-1.2-2.76-.16-.66-.27-1.34-.31-1.99-.04-.76-.01-1.46.07-2.16.03-.33.09-.72.15-1.1.17-.99.44-2.08.83-3.31.32-1,.76-2.01,1.31-2.99-15.36-19.17-38.97-31.43-65.45-31.43-46.27,0-83.76,37.44-83.88,83.68,17.67-7.62,30.54-12.18,46.6-17.86-2.84-4.43-6.92-12.12-6.73-19.34.29-11.06,10.19-29.22,10.19-29.22,0,0,1.49,2.95,3.94,7.5,2.44,4.55,3.09,9.38,3.09,9.38.07.79.46,3.4,1.04,4.34,0,0,5.52-12.41,17.83-21.03,2.72-1.81,4.51-2.21,4.73-2.3-.21.17-2.07,1.74-1.93,4.97h-.01c-.03,8.7,3.15,8.8,3.52,18.19.13,3.4-.54,7.34-4.14,11.86s-6.93,5.41-14.46,9.06c-1.74.84-3.35,1.62-4.78,2.33,1.51-.37,3.27-.66,5.06-.66,6.79,0,11.58,4.1,12.5,10.68.62,4.48-1.08,8.67-4.81,11.83-.52.44-1.08.86-1.66,1.23.84.55,1.55,1.42,2.09,2.6.59,1.3.86,2.88.78,4.74-.03.8-.13,1.26-.35,1.95-.21.7-.5,1.37-.86,1.99-.32.59-.68,1.12-1.1,1.62-.9,1.04-2.13,1.81-3.49,1.99-.99.15-1.82.01-2.44-.35-.24-.13-.48-.35-.71-.67-.17-.23-.33-.47-.48-.72-.11-.17-.15-.25-.25-.42-.88.37-1.73.98-2.57,1.82-1,1-1.97,2.14-2.88,3.36-.94,1.29-1.83,2.62-2.66,3.99-.78,1.29-1.47,2.46-2.09,3.53-.63,2.3-1.33,4.81-2.07,7.56-.54,1.9-1.06,3.95-1.59,6.1-.29,1.86-.59,3.72-.9,5.58-.04.48-.08.98-.13,1.49-.12,1.27-.37,2.52-.72,3.68-.07.17-.13.33-.2.51-.46.98-1.07,1.9-1.83,2.72-.75.83-1.59,1.42-2.52,1.79-1.95.76-3-.03-3.53-.79-.68-.99-.98-2.32-.88-3.96.04-.7.16-1.45.36-2.22.46-2.33.99-4.86,1.61-7.55.62-2.72,1.26-5.41,1.9-8.06.66-2.64,1.29-5.15,1.89-7.58.58-2.33,1.07-4.42,1.46-6.24.01-.23.03-.55.04-.82.03-.4.04-.59.07-.98.08-1.3.23-2.57.4-3.8.19-1.22.39-2.36.64-3.37.04-.15.07-.28.11-.41-1.26.56-2.4,1.07-3.35,1.51-2.61,12.44-10.25,47.77-10.62,49.43l-.17.66c-.4,1.22-1.11,2.44-2.03,3.59-1.12,1.42-2.58,2.73-4.18,3.82h-.01c-1.45.99-3,1.78-4.54,2.26-5.8-5.02-10.96-10.75-15.37-17.04C6.31,132.95,0,114.3,0,94.18,0,42.17,42.16,0,94.16,0c29.42,0,55.7,13.49,72.96,34.63,1.54,1.87,3,3.8,4.36,5.78,1.39,1.98,2.7,4.03,3.92,6.12,1.35,2.29,2.6,4.63,3.75,7.03-.52.7-1.08,1.35-1.7,1.97-.25.25-.51.51-.76.74.83,1.47,1.29,3.17,1.35,5.06Z"/>
      <path class="cls-5" d="m178.06,61.66c0,.36,0,.74-.04,1.12-.01.4-.07.8-.13,1.22-.33,2.28-.54,3.45-.92,5.35-.39,1.85-.78,3.64-1.16,5.44-.23,1.06-.47,2.12-.7,3.19-.44,2.02-.9,4.08-1.37,6.24-1.31,6.13-2.3,11.69-3.24,18.02l-.08.44c-.07.4-.19.92-.33,1.55-.21.91-.51,1.85-.87,2.77-.08.21-.17.43-.27.63h0c-.43,1.03-.94,1.97-1.53,2.82-1.29,1.85-2.96,3.2-4.85,3.92-1.16.44-2.36.67-3.55.67-1.59,0-3.19-.43-4.58-1.22-1.62-.91-3-2.24-4.07-3.95-.86-1.35-1.5-2.88-1.91-4.52-.19-.71-.32-1.43-.41-2.14v-.04c-.11-.74-.16-1.47-.16-2.21v-.47c0-.83.08-1.65.24-2.46.01-.09.03-.16.04-.24h0c.37-2.37.58-3.57.96-5.74.37-2.02.82-4.18,1.31-6.45.55-2.53.86-3.86,1.34-5.96l.2-.88c.52-2.28,1.06-4.58,1.58-7.01s1-5.56,1.37-7.98c.13-.91.37-1.79.79-2.86.39-1,.91-1.99,1.54-2.96.43-.67.94-1.31,1.51-1.93.31-.33.63-.66.98-.98,1.31-1.2,2.9-2.14,4.61-2.73.71-.27,1.43-.46,2.17-.58.15-.04.31-.05.46-.08.51-.07,1-.09,1.49-.09.94,0,1.85.12,2.72.36.08.03.17.05.25.08.8.24,1.55.59,2.25,1.06.99.63,1.85,1.46,2.54,2.46.17.24.32.5.47.75.83,1.47,1.29,3.17,1.35,5.06v.33Z"/>
      <path class="cls-3" d="m113.99,90.4c-.19.8-.37,1.49-.56,2.14-1.94,8.7-2.9,10.8-4.85,20.9-.09,1.24-.19,2.46-.25,3.64-.08,1.37-.25,2.78-.51,4.22-.12.6-.17.9-.29,1.51-.17.9-.44,1.82-.8,2.74-.37.94-.83,1.81-1.35,2.6-.63.92-1.39,1.58-2.28,1.93-.88.36-1.59.55-2.17.56-.7.01-1.24-.17-1.67-.56-.51-.46-.88-1.16-1.04-2.05-.12-.6-.16-1.27-.16-2.02.01-1.2.11-2.56.29-4.1-.95,1.49-1.95,3-2.99,4.48-1.12,1.65-2.26,3.17-3.37,4.5-2.26,2.66-4.38,3.63-6.21,3.44-.82-.08-1.54-.36-2.13-.82-1.42-1.1-2.45-2.3-3.07-3.61-.64-1.37-.92-3.08-.84-5.05.04-.83.43-22.37,19.2-37.46,1.22-.98,2.66-1.46,3.99-1.95.59-.21,1.26-.41,1.98-.6.58-.13,1.11-.27,1.61-.37.47-.28.87-.51,1.19-.68.43-.21.87-.41,1.33-.58.92-.33,1.71-.47,2.4-.4.71.05,1.3.29,1.75.72.44.4.76.95.96,1.63.17.62.25,1.33.25,2.09-.01,1-.15,2.06-.4,3.15Z"/>
      <path class="cls-8" d="m179.16,53.56c.29-.39.58-.79.84-1.19.83-1.29,1.45-2.61,1.83-3.98.11-.36.2-.74.27-1.11.04-.24.17-1.06.17-1.06.15-.95.2-1.94.13-2.93-.13-1.97-.71-3.72-1.71-5.18-1.3-1.91-3.27-3.16-5.53-3.55-.54-.23-1.08-.41-1.67-.56-.33-.09-.68-.16-1.03-.21-.43-.05-.86-.08-1.29-.08-1.18,0-2.36.23-3.49.67-.19.08-.37.16-.56.25-.82.37-1.65.91-2.65,1.65-.44.32-.84.66-1.22.99-.41.35-.8.71-1.18,1.07l-.27.29-.25.29c-.75.91-1.41,1.83-1.94,2.78-15.35-19.17-38.97-31.43-65.45-31.43C47.9,10.28,10.4,47.72,10.28,93.96c-.16.08-.32.15-.48.21-2.25.98-3.92,2.54-5.07,4.42-2.06,3.33-2.45,7.63-1.49,11.18.72,2.69,2.17,4.91,4.14,6.49,1.82,1.5,4.1,2.42,6.61,2.64,1.67,5.46,3.9,10.68,6.6,15.6-.7,2.52-1.38,5.06-2.03,7.62-.52,2.03-1.02,4.1-1.49,6.13-.11.4-.19.79-.28,1.19-.54,2.02-.55,4.14-.09,6.17.4,1.87,1.2,3.67,2.37,5.23,1.71,2.3,4.04,3.91,6.61,4.63.96.27,1.97.41,2.99.43h.32c1.1,0,2.26-.21,3.45-.62,16.52,14.38,38.1,23.07,61.73,23.07,52.02,0,94.18-42.17,94.18-94.18,0-14.54-3.29-28.31-9.18-40.62Zm-65.17,36.84c-.19.8-.37,1.49-.56,2.14-1.94,8.7-2.9,10.8-4.85,20.9-.09,1.25-.19,2.46-.25,3.64-.08,1.37-.25,2.78-.51,4.22-.12.6-.17.9-.29,1.51-.17.9-.44,1.82-.8,2.74-.37.94-.83,1.81-1.35,2.6-.63.92-1.39,1.58-2.28,1.93-.88.36-1.59.55-2.17.56-.7.01-1.24-.17-1.67-.56-.51-.46-.88-1.16-1.04-2.05-.12-.6-.16-1.27-.16-2.02.01-1.2.11-2.56.29-4.1-.95,1.49-1.95,3-2.99,4.48-1.12,1.65-2.26,3.17-3.37,4.5-2.26,2.66-4.38,3.63-6.21,3.44-.82-.08-1.54-.36-2.13-.82-1.42-1.1-2.45-2.3-3.07-3.61-.64-1.37-.92-3.08-.84-5.05.04-.83.43-22.37,19.2-37.46,1.22-.98,2.66-1.46,3.99-1.95.59-.21,1.26-.41,1.98-.6.58-.13,1.11-.27,1.61-.37.47-.28.87-.51,1.19-.68.43-.21.87-.41,1.33-.58.92-.33,1.71-.47,2.4-.4.71.05,1.3.29,1.75.72.44.4.76.95.96,1.63.17.62.25,1.33.25,2.09-.01,1-.15,2.06-.4,3.15Z"/>
      <path class="cls-6" d="m83.13,102.26c-.03.8-.13,1.26-.35,1.95-.21.7-.5,1.37-.86,1.99-.32.59-.68,1.12-1.1,1.62-.9,1.04-2.13,1.81-3.49,1.99-.99.15-1.82.01-2.44-.35-.24-.13-.48-.35-.71-.67-.17-.23-.33-.47-.48-.72-.11-.17-.15-.25-.25-.42-.88.37-1.73.98-2.57,1.82-1,1-1.97,2.14-2.88,3.36-.94,1.29-1.83,2.62-2.66,3.99-.78,1.29-1.47,2.46-2.09,3.53-.63,2.3-1.33,4.81-2.07,7.56-.54,1.9-1.06,3.95-1.59,6.1-.29,1.86-.59,3.72-.9,5.58-.04.48-.08.98-.13,1.49-.12,1.27-.37,2.52-.72,3.68-.07.17-.13.33-.2.51-.46.98-1.07,1.9-1.83,2.72-.75.83-1.59,1.42-2.52,1.79-1.95.76-3-.03-3.53-.79-.68-.99-.98-2.32-.88-3.96.04-.7.16-1.45.36-2.22.46-2.33.99-4.86,1.61-7.55.62-2.72,1.26-5.41,1.9-8.06.66-2.64,1.29-5.15,1.89-7.58.58-2.33,1.07-4.42,1.46-6.24.01-.23.03-.55.04-.82.03-.4.04-.59.07-.98.08-1.3.23-2.57.4-3.8.19-1.22.39-2.36.64-3.37.04-.15.07-.28.11-.41h.01c.51-1.94,1.07-3.09,1.77-3.92.62-.76,1.43-1.3,2.36-1.63.98-.35,1.78-.37,2.41-.07.6.28,1.06.8,1.37,1.57.08.19.13.39.19.62.16.56.25,1.22.27,1.97,0,.15.01.31.01.46.7-1.08,1.42-2.1,2.17-3.03.15-.19.29-.36.44-.54.82-.99,1.67-1.86,2.56-2.64,1.57-1.39,3.25-2.29,4.83-2.52.41-.07.84-.11,1.29-.11.44-.03.98-.01,1.51.07.6.08,1.18.28,1.7.63.01.01.04.03.05.04.84.55,1.55,1.42,2.09,2.6.59,1.3.86,2.88.78,4.74Z"/>
      <path class="cls-6" d="m114.14,85.17c-.2-.68-.52-1.23-.96-1.63-.46-.43-1.04-.67-1.75-.72-.68-.07-1.47.07-2.4.4-.46.16-.9.36-1.33.58-.32.17-.72.4-1.19.68-.5.11-1.03.24-1.61.37-.72.19-1.39.39-1.98.6-1.33.5-2.77.98-3.99,1.95-18.77,15.09-19.16,36.63-19.2,37.46-.08,1.97.2,3.68.84,5.05.62,1.31,1.65,2.52,3.07,3.61.59.46,1.31.74,2.13.82,1.83.19,3.95-.78,6.21-3.44,1.11-1.33,2.25-2.85,3.37-4.5,1.03-1.49,2.03-3,2.99-4.48-.19,1.54-.28,2.89-.29,4.1,0,.75.04,1.42.16,2.02.16.88.54,1.59,1.04,2.05.43.39.98.58,1.67.56.58-.01,1.29-.2,2.17-.56.88-.35,1.65-1,2.28-1.93.52-.79.98-1.66,1.35-2.6.36-.92.63-1.85.8-2.74.12-.62.17-.91.29-1.51.25-1.43.43-2.85.51-4.22.07-1.18.16-2.4.25-3.64,1.94-10.09,2.9-12.2,4.85-20.9.19-.66.37-1.34.56-2.14.25-1.08.39-2.14.4-3.15,0-.76-.08-1.47-.25-2.09Zm-10.6,12.58c-.12.91-.27,1.71-.46,2.4-.29,1.16-.79,2.41-1.46,3.72-.7,1.39-1.51,2.81-2.42,4.28-.92,1.49-1.91,3-2.96,4.5-1.04,1.53-2.09,2.99-3.09,4.35-.7.94-1.45,1.83-2.24,2.65-.62.64-1.24,1.12-1.99,1.49-.07-.31-.09-.67-.08-1.08.01-.63.08-1.27.19-1.91.12-.7.23-1.22.31-1.55.01-.01.01-.03.01-.04.32-1.35.78-2.76,1.35-4.2.58-1.45,1.27-2.91,2.05-4.34.78-1.43,1.65-2.84,2.58-4.19.92-1.34,1.89-2.6,2.89-3.72.99-1.11,2.02-2.12,3.08-2.97.82-.66,1.62-1.18,2.42-1.57-.01.64-.07,1.38-.19,2.2Z"/>
      <path class="cls-6" d="m155.08,43c-.37-.67-.87-1.16-1.46-1.45-.55-.27-1.16-.37-1.83-.28-.55.08-1.1.23-1.65.44-1.02.39-1.91,1.23-2.61,2.38-.59,1-1.03,2.12-1.33,3.29-.03.12-.03.19-.05.31-1.07,8.3-2.24,13.56-3.19,17.83-.6,2.68-1.07,4.83-1.39,6.36-.12.01-.23.03-.35.05-1.7.27-3.98,1.24-6.14,2.81-1.19.87-19.81,13.48-21.06,33.04-.04.66-.11,1.34-.11,2.03,0,1.99.29,3.91.87,5.57.58,1.69,1.38,3.2,2.37,4.32.99,1.12,2.13,1.91,3.37,2.24,1.22.32,2.49.25,3.78-.23,1.02-.37,2.05-.96,3.05-1.73.96-.74,1.91-1.57,2.8-2.46.88-.88,1.71-1.78,2.46-2.68.74-.87,1.41-1.66,1.98-2.37.23-.28.59-.74,1.08-1.37.47-.6.96-1.24,1.5-1.91.29-.36.43-.55.72-.9.01.46.04.88.07,1.3.07.88.2,3.07.58,3.71.39.66,1,1.27,1.78,1.59.55.23,1.26.2,2.17-.13.76-.28,1.45-.7,1.99-1.15.66-.54,1.19-1.07,1.65-1.94.44-.82.79-1.77,1.03-2.77.17-.76.35-1.66.51-2.64.17-1.06.29-2.09.37-3.07v-.04c.08-.98.11-1.9.11-2.77,0-.55,0-1.54.01-2.61h0c0-1.37.01-2.85.05-3.76.08-1.62.2-3.23.35-4.79.13-1.59.29-3.08.47-4.51.16-1.37.33-2.5.54-3.39,2.72-13.05,4.04-21.33,6.12-35.32.01-.19.01-.27.03-.46-.07-1.06-.28-1.91-.64-2.57Zm-15.23,41.89c-.11.84-.24,1.65-.37,2.44-.13.78-.28,1.58-.46,2.4-.16.83-.36,1.75-.59,2.73-.24,1.03-.58,1.98-.98,2.85-.41.87-.9,1.73-1.43,2.53-.56.84-1.22,1.67-1.91,2.5-.78.88-1.62,1.85-2.5,2.81-.32.35-.71.76-1.18,1.24-.43.46-.9.91-1.41,1.37-.48.44-.96.84-1.46,1.2-.41.29-.79.51-1.11.63-.78.27-1.2.27-1.43.2-.32-.08-.56-.24-.75-.47-.2-.25-.33-.6-.41-1.02-.11-.56-.16-1.16-.16-1.81,0-.58.08-1.2.24-1.87,0-.01.01-.03.01-.05.31-1.41.8-2.77,1.47-4.11.7-1.38,1.51-2.72,2.44-3.99.94-1.31,1.97-2.57,3.07-3.78,1.1-1.2,2.22-2.33,3.36-3.35,1.12-1,2.24-1.89,3.29-2.61.9-.62,1.71-1.08,2.46-1.41-.07.55-.12,1.07-.19,1.55Z"/>
      <path class="cls-6" d="m175.16,41.87c-.24-.35-.78-.85-1.88-.72-.15-.11-.31-.2-.48-.3-.29-.16-.62-.29-.98-.38-.55-.14-1.11-.1-1.67.12-.43.17-.94.49-1.67,1.03-.65.49-1.19.95-1.65,1.42-.06.07-.09.1-.15.16-.97,1.17-1.65,2.35-2.01,3.5-.3.95-.5,1.74-.61,2.4-.04.25-.08.5-.11.75-.04.32-.04.66-.02,1.03.01.24.06.51.12.78.11.43.37.83.81,1.25.63.59,1.16.94,1.65,1.08.59.16,1.3.06,2.19-.29.6-.24,1.24-.61,1.97-1.14.69-.5,1.36-1.08,1.99-1.72.65-.66,1.23-1.38,1.72-2.14.57-.87.96-1.76,1.13-2.65.04-.22.09-.51.14-.87.07-.47.09-.96.06-1.46-.05-.76-.24-1.38-.57-1.86Z"/>
      <path class="cls-6" d="m169.38,58.36c-.45-.13-.96-.15-1.51-.08-1.25.17-2.6.78-3.6,1.7-.56.51-1.04,1.06-1.41,1.64-.37.56-.67,1.13-.88,1.69-.23.61-.36,1.03-.42,1.43-.43,2.91-.91,5.94-1.44,8.42-.53,2.48-1.07,4.81-1.6,7.11-.61,2.63-.91,3.94-1.53,6.76-.49,2.23-.91,4.32-1.26,6.21-.4,2.24-.6,3.42-1.01,6-.09.42-.14.83-.14,1.22,0,.2,0,.29,0,.49,0,.9.13,1.84.37,2.78.24.95.6,1.83,1.08,2.58.48.75,1.05,1.34,1.72,1.71.72.41,1.55.45,2.44.11.64-.24,1.21-.74,1.71-1.46.42-.6.78-1.3,1.07-2.06.25-.65.45-1.29.61-1.92.12-.5.21-.91.27-1.23.01-.08.02-.11.03-.19,1.1-7.45,2.21-13.27,3.32-18.44,1.11-5.2,2.18-9.81,3.21-14.82.36-1.75.54-2.81.87-5.08.07-.36.1-.71.08-1.06,0-.13,0-.19-.01-.32-.03-.92-.24-1.65-.62-2.2-.35-.5-.8-.83-1.35-.98Z"/>
      <path class="cls-6" d="m80.1,82.79c-1.22-8.7-12.99-3.2-12.99-3.2-20.55,7.29-34.17,11.88-54.65,20.73-2.93,1.27-3.46,5.11-2.75,7.7.7,2.59,2.71,4.22,5.28,4.25,2.59-.02,4.53-1.06,6.41-2.06.56-.3,1.13-.6,1.78-.91,3.25-1.61,7.74-3.73,11.76-4.98-.22,3.9-1.26,7.71-2.35,11.7-.38,1.38-.76,2.78-1.1,4.17-.86,3.21-1.76,6.46-2.68,9.72-1.94,6.95-3.95,14.14-5.52,21.14-.53,1.91-.09,4.13,1.16,5.82,1.09,1.47,2.7,2.33,4.38,2.35.05,0,.11,0,.16,0,2.47,0,7.09-3.3,7.85-5.65,0,0,9.85-45.55,11.29-52.66,0,0,16.13-7.73,25.35-10.21,1.51-.41,2.94-1.1,4.13-2.11,1.48-1.25,2.86-3.15,2.5-5.79Z"/>
      <path class="cls-4" d="m61.07,73.25l-.08.29v.03c-.39-.24-6.83-4.54-5.8-15.98.66-7.36,2.5-12.18,3.8-14.75.13-.29.27-.55.4-.79.5-.9.84-1.37.92-1.46-.91,5.62-1.16,22.54.75,32.66Z"/>
      <path class="cls-7" d="m90.97,25.42c-.21.17-2.07,1.74-1.93,4.97h-.01s-.01.01-.03.03c-.04.04-.13.11-.24.21-.07.04-.15.11-.23.19-.16.15-.36.33-.59.55h-.01c-1.71,1.65-5.3,5.44-9.8,12.3-.16.24-.32.48-.47.74-.47.72-.95,1.5-1.45,2.3-1.31,2.14-2.68,4.52-4.08,7.18-.35.67-.71,1.35-1.06,2.05-.19.35-.36.7-.54,1.06-.36.71-.72,1.45-1.08,2.18-1.08,2.25-2.18,4.65-3.29,7.22,0,0,0,.01-.01.03-.01.03-.04.09-.09.2-.03.05-.05.11-.09.17-.12.27-.33.67-.62,1.22-.01,0-.01.01-.01.01-.7,1.31-1.91,3.45-3.84,6.47h-.01c-.15.23-.29.47-.46.71-1.95,2.45-1.47,4.7-1.47,4.7,0,0-1.15-1.45-2.66-3.79-2.84-4.43-6.92-12.12-6.73-19.34.29-11.06,10.19-29.22,10.19-29.22l.5,12.58s-.01,0-.01.01c-.17.11-.31.24-.48.43,0,0-.01.01-.01.03-.08.09-.43.56-.92,1.46-.13.24-.27.5-.4.79-1.3,2.57-3.15,7.39-3.8,14.75-1.03,11.45,5.41,15.74,5.78,15.98v-.03s.09-.29.09-.29c.66-2.41.78-5.35.7-8.61,0,0,5.48-13.03,5.54-13.99.15-1.74.04-4.35.05-6.24.07.79.46,3.4,1.04,4.34,0,0,5.52-12.41,17.83-21.03,2.72-1.81,4.51-2.21,4.73-2.3Z"/>
      <path class="cls-2" d="m67.31,50.66c-.07.96-5.54,13.99-5.54,13.99l-.95-24.51-.48-12.6s1.49,2.95,3.94,7.5c2.44,4.55,3.09,9.38,3.09,9.38-.01,1.89.09,4.5-.05,6.24Z"/>
      <path class="cls-2" d="m88.41,60.44c-3.6,4.52-6.93,5.41-14.46,9.06-1.74.84-3.35,1.62-4.78,2.33h-.01c-4.58,2.22-7.5,3.64-7.72,3.75.39-.33.75-.91,1.04-1.46.39-.75.64-1.45.64-1.45,0,0,6.47-6.27,10.78-9.69,4.15-3.31,11.22-16.83,11.75-17.87-.8,1.15-8.82,14.63-14.77,19.14-2.29,1.75-4.85,3.21-5.54,3.75-.01,0-.01.01-.01.01h-.01c.29-.55.51-.96.64-1.23.04-.07.07-.12.09-.17.05-.11.08-.17.09-.2.01-.01.01-.03.01-.03,1.11-2.57,2.21-4.97,3.29-7.22.36-.74.72-1.47,1.08-2.18.17-.36.35-.71.54-1.06.35-.7.71-1.38,1.06-2.05,1.41-2.65,2.77-5.03,4.08-7.18.48-.8.96-1.58,1.45-2.3.15-.25.31-.5.47-.74,4.5-6.88,8.09-10.67,9.8-12.3h.01c.23-.23.43-.41.59-.55.08-.08.16-.15.23-.19.12-.12.2-.19.24-.21.01-.01.03-.01.03-.01-.03,8.69,3.15,8.78,3.52,18.18.13,3.4-.54,7.34-4.14,11.86Z"/>
      <path class="cls-6" d="m69.46,164.99c29.17,10.55,61.22.43,81.59-22.31,12.08-13.36,19.5-30.82,20.35-48.85.02-.41.37-.73.79-.71s.73.37.71.79c-.58,12.21-3.99,24.3-9.96,34.98-11.9,21.39-33.59,37.31-57.83,41.31-12.14,1.93-24.7.68-36.3-3.32-1.2-.46-.63-2.3.66-1.89h0Z"/>
      <path class="cls-6" d="m69.38,171.2c20.57,7.43,44.13,5.8,63.48-4.47.19-.11.38.21.17.31-19.34,10.71-43.22,12.74-64.15,5.58-.93-.32-.46-1.77.5-1.43h0Z"/>
      <path class="cls-6" d="m48.85,168.59c0,1.26-1.02,2.28-2.28,2.28s-2.28-1.02-2.28-2.28,1.02-2.28,2.28-2.28,2.28,1.02,2.28,2.28Z"/>
      <path class="cls-9" d="m175.2,57.53c4.98,11.09,7.76,23.38,7.76,36.33,0,48.99-39.71,88.7-88.7,88.7-15.28,0-29.67-3.87-42.22-10.67"/>
      <path class="cls-9" d="m5.66,94.99C5.92,43.34,45.28,5.17,94.26,5.17c26.45,0,50.19,11.57,66.44,29.93"/>
      <path class="cls-9" d="m17.39,138.41c-3.16-4.83-6.32-12.38-7.96-18.95"/>
    </g>
  </g>
</svg>